<svg width="216" height="52" fill="none" xmlns="http://www.w3.org/2000/svg"><path d="M44.5 44.5c-5 5-11.1 7.5-18.4 7.5-7.3 0-13.5-2.5-18.6-7.5C2.5 39.5 0 33.3 0 26A25 25 0 017.5 7.6C12.6 2.6 18.8 0 26.1 0a25 25 0 0118.4 7.6c5.1 5 7.7 11.1 7.7 18.4 0 7.3-2.6 13.4-7.7 18.5zm-31.1-5.6c3.4 3.4 7.7 5 12.7 5a17.5 17.5 0 0017.8-18c0-5-1.7-9.3-5.2-12.7A17 17 0 0026.1 8c-5 0-9.3 1.7-12.7 5.2A17.4 17.4 0 008.3 26c0 5.2 1.7 9.5 5 12.9zM80.2 52C72.4 52 67 49 64 42.8l7.2-4.1c1.6 3.5 4.6 5.3 9 5.3 3 0 5.2-.7 6.7-2.1a7.7 7.7 0 002.4-6V.9h8.2v35a15 15 0 01-4.9 12A18.5 18.5 0 0180.2 52zM128.7 52c-7.8 0-13.2-3-16.2-9.2l7.1-4.1c1.6 3.5 4.7 5.3 9.1 5.3 3 0 5.1-.7 6.6-2.1a7.7 7.7 0 002.4-6V.9h8.3v35a15 15 0 01-5 12 18.5 18.5 0 01-12.3 4.1zM208.4 44.5c-5 5-11.2 7.5-18.5 7.5-7.3 0-13.4-2.5-18.5-7.5-5-5-7.6-11.2-7.6-18.5a25 25 0 017.6-18.4c5-5 11.2-7.6 18.5-7.6a25 25 0 0118.5 7.6c5 5 7.6 11.1 7.6 18.4 0 7.3-2.5 13.4-7.6 18.5zm-31.2-5.6c3.4 3.4 7.7 5 12.7 5a17.5 17.5 0 0017.8-18c0-5-1.7-9.3-5.1-12.7A17 17 0 00189.9 8c-5 0-9.3 1.7-12.7 5.2a17.4 17.4 0 00-5.1 12.8c0 5.2 1.7 9.5 5.1 12.9z" fill="#fff"/><path d="M36.1 24v-.1-.2l-3-5.3-.4-.5H20l-3.7 5.6-.2.3v.5l.1.3 9.1 12.8.2.2.3.1.3.1h.2l.3-.2.2-.2 9-12.8c.2-.1.2-.3.2-.4V23.8zm-4.9-.4l1.3-2.6 1.3 2.6h-2.6zm-.7 1.5h3l-5.1 7.3 2-7.3zm-.8-2.3L27.8 20h3.3l-1.4 2.8zm-6 2.3h5L26.1 34 23.7 25zm.5-1.5l2-3 2 3h-4zm-1.4-1l-.9-2.6h2.6l-1.7 2.6zm1.1 9.8L18.8 25h3l2.1 7.3zM20.4 21l.9 2.6h-2.6l1.7-2.6zM199.8 24v-.1-.2l-3-5.3-.5-.5h-12.5l-3.8 5.6-.1.3v.8l9.2 12.8.2.2.2.1.3.1h.3l.2-.2.2-.2 9.1-12.8.2-.4V23.8zm-4.9-.4l1.3-2.6 1.3 2.6h-2.6zm-.8 1.5h3.1l-5.1 7.3 2-7.3zm-.7-2.3l-2-2.8h3.4l-1.4 2.8zm-6 2.3h5l-2.6 8.8-2.4-8.8zm.4-1.5l2-3 2 3h-4zm-1.3-1l-1-2.6h2.7l-1.7 2.6zm1 9.8l-5-7.3h3l2 7.3zM184.2 21l.9 2.6h-2.6L184 21z" fill="#fff"/></svg>